<svg width="42" height="42" viewBox="0 0 42 42" fill="none" xmlns="http://www.w3.org/2000/svg">
<path d="M12.8476 17.6479L21.0048 9.49404L29.1653 17.6545L33.909 12.9075L21.0048 0L8.10059 12.9042L12.8476 17.6479Z" fill="#F3BA2F"/>
<path d="M0 21.0019L4.7437 16.2549L9.49072 21.0019L4.7437 25.7456L0 21.0019Z" fill="#F3BA2F"/>
<path d="M12.8476 24.352L21.0048 32.5091L29.1653 24.3486L33.9123 29.089L21.0081 41.9965L8.10059 29.099L12.8476 24.352Z" fill="#F3BA2F"/>
<path d="M32.5093 21.0019L37.253 16.2549L42 20.9986L37.253 25.7489L32.5093 21.0019Z" fill="#F3BA2F"/>
<path d="M25.8181 20.9983L21.0048 16.1816L17.4453 19.7411L17.034 20.1491L16.1914 20.9917L21.0048 25.8017L25.8181 21.0016V20.9983Z" fill="#F3BA2F"/>
</svg>
