<svg id="visual" viewBox="0 0 900 600" width="900" height="600" xmlns="http://www.w3.org/2000/svg" xmlns:xlink="http://www.w3.org/1999/xlink" version="1.1"><rect x="0" y="0" width="900" height="600" fill="#D9E0D9"></rect><path d="M0 265L113 265L113 224L225 224L225 229L338 229L338 384L450 384L450 370L563 370L563 209L675 209L675 225L788 225L788 289L900 289L900 272L900 0L900 0L788 0L788 0L675 0L675 0L563 0L563 0L450 0L450 0L338 0L338 0L225 0L225 0L113 0L113 0L0 0Z" fill="#d9e0d9"></path><path d="M0 335L113 335L113 183L225 183L225 253L338 253L338 187L450 187L450 318L563 318L563 276L675 276L675 183L788 183L788 274L900 274L900 238L900 0L900 0L788 0L788 0L675 0L675 0L563 0L563 0L450 0L450 0L338 0L338 0L225 0L225 0L113 0L113 0L0 0Z" fill="#abc5ac"></path><path d="M0 265L113 265L113 259L225 259L225 187L338 187L338 216L450 216L450 168L563 168L563 257L675 257L675 279L788 279L788 161L900 161L900 273L900 0L900 0L788 0L788 0L675 0L675 0L563 0L563 0L450 0L450 0L338 0L338 0L225 0L225 0L113 0L113 0L0 0Z" fill="#7daa80"></path><path d="M0 103L113 103L113 128L225 128L225 168L338 168L338 150L450 150L450 150L563 150L563 163L675 163L675 159L788 159L788 125L900 125L900 203L900 0L900 0L788 0L788 0L675 0L675 0L563 0L563 0L450 0L450 0L338 0L338 0L225 0L225 0L113 0L113 0L0 0Z" fill="#4d8f56"></path><path d="M0 132L113 132L113 108L225 108L225 87L338 87L338 99L450 99L450 129L563 129L563 98L675 98L675 134L788 134L788 90L900 90L900 85L900 0L900 0L788 0L788 0L675 0L675 0L563 0L563 0L450 0L450 0L338 0L338 0L225 0L225 0L113 0L113 0L0 0Z" fill="#07752e"></path></svg>