<svg width="48" height="48" viewBox="0 0 48 48" fill="none" xmlns="http://www.w3.org/2000/svg">
<path d="M48 23.6552C48 30.0138 46.9344 35.1717 45.6194 35.1717C44.3045 35.1717 43.2393 30.0152 43.2393 23.6552C43.2393 17.2952 44.3049 12.1387 45.6194 12.1387C46.9339 12.1387 48 17.2947 48 23.6552Z" fill="black"/>
<path d="M41.9254 23.6553C41.9254 30.7539 38.8949 36.5108 35.1565 36.5108C31.4182 36.5108 28.3877 30.7539 28.3877 23.6553C28.3877 16.5567 31.4177 10.7998 35.1561 10.7998C38.8944 10.7998 41.9249 16.5548 41.9249 23.6553" fill="black"/>
<path d="M27.0749 23.6554C27.0749 31.1968 21.0139 37.3103 13.5377 37.3103C6.06146 37.3103 0 31.1955 0 23.6554C0 16.1153 6.061 10 13.5377 10C21.0143 10 27.0749 16.114 27.0749 23.6554Z" fill="black"/>
</svg>
