<svg width="42" height="42" viewBox="0 0 42 42" fill="none" xmlns="http://www.w3.org/2000/svg">
<g clip-path="url(#clip0_6_19)">
<path d="M18.7398 18.7397C20.2253 19.1035 21.7766 19.1035 23.2621 18.7397C23.6772 17.0517 24.5464 15.5094 25.7756 14.2802C27.0049 13.051 28.5471 12.1817 30.2352 11.7666C30.5773 10.3673 30.597 8.90849 30.2926 7.50044C29.9883 6.09239 29.368 4.77191 28.4785 3.63875C27.589 2.50559 26.4537 1.58939 25.1582 0.959361C23.8627 0.329333 22.441 0.00195313 21.0004 0.00195312C19.5599 0.00195313 18.1381 0.329333 16.8426 0.959361C15.5472 1.58939 14.4118 2.50559 13.5223 3.63875C12.6328 4.77191 12.0125 6.09239 11.7082 7.50044C11.4039 8.90849 11.4235 10.3673 11.7657 11.7666C13.4541 12.1813 14.9967 13.0503 16.2262 14.2796C17.4556 15.5089 18.3249 17.0514 18.7398 18.7397Z" fill="#7ABDF7"/>
<path d="M23.262 23.2601C21.7765 22.8964 20.2252 22.8964 18.7398 23.2601C18.3246 24.9482 17.4554 26.4904 16.2262 27.7196C14.997 28.9488 13.4547 29.8181 11.7667 30.2332C11.4245 31.6326 11.4049 33.0914 11.7092 34.4994C12.0135 35.9075 12.6338 37.2279 13.5233 38.3611C14.4128 39.4943 15.5481 40.4105 16.8436 41.0405C18.1391 41.6705 19.5608 41.9979 21.0014 41.9979C22.442 41.9979 23.8637 41.6705 25.1592 41.0405C26.4547 40.4105 27.59 39.4943 28.4795 38.3611C29.369 37.2279 29.9893 35.9075 30.2936 34.4994C30.5979 33.0914 30.5783 31.6326 30.2361 30.2332C28.5477 29.8186 27.0051 28.9495 25.7756 27.7202C24.5462 26.491 23.6769 24.9485 23.262 23.2601Z" fill="#0D74F5"/>
<path d="M32.4961 11.4933C31.7346 11.4932 30.9758 11.5847 30.2361 11.7659C29.8214 13.4539 28.9524 14.9961 27.7233 16.2251C26.4942 17.4542 24.952 18.3232 23.264 18.7379C22.9003 20.2234 22.9003 21.7747 23.264 23.2601C24.952 23.6751 26.4942 24.5443 27.7233 25.7736C28.9524 27.0028 29.8214 28.5451 30.2361 30.2332C31.5418 30.5522 32.9004 30.5906 34.2221 30.346C35.5438 30.1013 36.7986 29.5792 37.9037 28.814C39.0088 28.0488 39.9391 27.058 40.6331 25.9069C41.3272 24.7558 41.7693 23.4706 41.9302 22.1361C42.0911 20.8016 41.9673 19.4482 41.5667 18.1651C41.1662 16.882 40.4981 15.6985 39.6066 14.6925C38.7151 13.6866 37.6204 12.8811 36.3947 12.3293C35.169 11.7775 33.8403 11.4918 32.4961 11.4912V11.4933Z" fill="#4494F7"/>
<path d="M18.7397 23.2605C19.1035 21.775 19.1035 20.2237 18.7397 18.7382C17.0516 18.3235 15.5093 17.4545 14.2801 16.2254C13.0508 14.9964 12.1816 13.4542 11.7666 11.7662C10.3673 11.424 8.90849 11.4044 7.50044 11.7087C6.09239 12.013 4.77191 12.6333 3.63875 13.5228C2.50559 14.4123 1.58939 15.5476 0.959361 16.8431C0.329333 18.1386 0.00195313 19.5603 0.00195312 21.0009C0.00195313 22.4415 0.329333 23.8632 0.959361 25.1587C1.58939 26.4542 2.50559 27.5895 3.63875 28.479C4.77191 29.3685 6.09239 29.9888 7.50044 30.2931C8.90849 30.5974 10.3673 30.5778 11.7666 30.2356C12.1812 28.5471 13.0502 27.0043 14.2795 25.7747C15.5088 24.545 17.0513 23.6755 18.7397 23.2605Z" fill="#005CF4"/>
<path d="M23.2622 18.7397C24.9503 18.3246 26.4925 17.4553 27.7217 16.2261C28.9509 14.9969 29.8202 13.4547 30.2353 11.7666C28.5472 12.1817 27.005 13.051 25.7758 14.2802C24.5466 15.5094 23.6773 17.0516 23.2622 18.7397Z" fill="#186EF9"/>
<path d="M23.2622 23.2598C23.677 24.948 24.5462 26.4904 25.7754 27.7196C27.0047 28.9489 28.5471 29.8181 30.2353 30.2329C29.8202 28.5448 28.9509 27.0026 27.7217 25.7734C26.4925 24.5441 24.9503 23.6749 23.2622 23.2598Z" fill="#0246F2"/>
<path d="M18.7397 18.7397C18.3246 17.0516 17.4553 15.5094 16.2261 14.2802C14.9969 13.051 13.4547 12.1817 11.7666 11.7666C12.1817 13.4547 13.051 14.9969 14.2802 16.2261C15.5094 17.4553 17.0516 18.3246 18.7397 18.7397Z" fill="#0046F8"/>
<path d="M18.7397 23.2598C17.0516 23.6749 15.5094 24.5441 14.2802 25.7734C13.051 27.0026 12.1817 28.5448 11.7666 30.2329C13.4547 29.8178 14.9969 28.9485 16.2261 27.7193C17.4553 26.4901 18.3246 24.9478 18.7397 23.2598Z" fill="#0729F1"/>
<path d="M18.7398 18.7397C20.2253 19.1035 21.7766 19.1035 23.2621 18.7397C23.6772 17.0517 24.5464 15.5094 25.7756 14.2802C27.0049 13.051 28.5471 12.1817 30.2352 11.7666C30.5773 10.3673 30.597 8.90849 30.2926 7.50044C29.9883 6.09239 29.368 4.77191 28.4785 3.63875C27.589 2.50559 26.4537 1.58939 25.1582 0.959361C23.8627 0.329333 22.441 0.00195313 21.0004 0.00195312C19.5599 0.00195313 18.1381 0.329333 16.8426 0.959361C15.5472 1.58939 14.4118 2.50559 13.5223 3.63875C12.6328 4.77191 12.0125 6.09239 11.7082 7.50044C11.4039 8.90849 11.4235 10.3673 11.7657 11.7666C13.4541 12.1813 14.9967 13.0503 16.2262 14.2796C17.4556 15.5089 18.3249 17.0514 18.7398 18.7397Z" fill="#7ABDF7"/>
<path d="M23.262 23.2601C21.7765 22.8964 20.2252 22.8964 18.7398 23.2601C18.3246 24.9482 17.4554 26.4904 16.2262 27.7196C14.997 28.9488 13.4547 29.8181 11.7667 30.2332C11.4245 31.6326 11.4049 33.0914 11.7092 34.4994C12.0135 35.9075 12.6338 37.2279 13.5233 38.3611C14.4128 39.4943 15.5481 40.4105 16.8436 41.0405C18.1391 41.6705 19.5608 41.9979 21.0014 41.9979C22.442 41.9979 23.8637 41.6705 25.1592 41.0405C26.4547 40.4105 27.59 39.4943 28.4795 38.3611C29.369 37.2279 29.9893 35.9075 30.2936 34.4994C30.5979 33.0914 30.5783 31.6326 30.2361 30.2332C28.5477 29.8186 27.0051 28.9495 25.7756 27.7202C24.5462 26.491 23.6769 24.9485 23.262 23.2601Z" fill="#0D74F5"/>
<path d="M32.4961 11.4933C31.7346 11.4932 30.9758 11.5847 30.2361 11.7659C29.8214 13.4539 28.9524 14.9961 27.7233 16.2251C26.4942 17.4542 24.952 18.3232 23.264 18.7379C22.9003 20.2234 22.9003 21.7747 23.264 23.2601C24.952 23.6751 26.4942 24.5443 27.7233 25.7736C28.9524 27.0028 29.8214 28.5451 30.2361 30.2332C31.5418 30.5522 32.9004 30.5906 34.2221 30.346C35.5438 30.1013 36.7986 29.5792 37.9037 28.814C39.0088 28.0488 39.9391 27.058 40.6331 25.9069C41.3272 24.7558 41.7693 23.4706 41.9302 22.1361C42.0911 20.8016 41.9673 19.4482 41.5667 18.1651C41.1662 16.882 40.4981 15.6985 39.6066 14.6925C38.7151 13.6866 37.6204 12.8811 36.3947 12.3293C35.169 11.7775 33.8403 11.4918 32.4961 11.4912V11.4933Z" fill="#4494F7"/>
<path d="M18.7397 23.2605C19.1035 21.775 19.1035 20.2237 18.7397 18.7382C17.0516 18.3235 15.5093 17.4545 14.2801 16.2254C13.0508 14.9964 12.1816 13.4542 11.7666 11.7662C10.3673 11.424 8.90849 11.4044 7.50044 11.7087C6.09239 12.013 4.77191 12.6333 3.63875 13.5228C2.50559 14.4123 1.58939 15.5476 0.959361 16.8431C0.329333 18.1386 0.00195313 19.5603 0.00195312 21.0009C0.00195313 22.4415 0.329333 23.8632 0.959361 25.1587C1.58939 26.4542 2.50559 27.5895 3.63875 28.479C4.77191 29.3685 6.09239 29.9888 7.50044 30.2931C8.90849 30.5974 10.3673 30.5778 11.7666 30.2356C12.1812 28.5471 13.0502 27.0043 14.2795 25.7747C15.5088 24.545 17.0513 23.6755 18.7397 23.2605Z" fill="#005CF4"/>
<path d="M23.2622 18.7397C24.9503 18.3246 26.4925 17.4553 27.7217 16.2261C28.9509 14.9969 29.8202 13.4547 30.2353 11.7666C28.5472 12.1817 27.005 13.051 25.7758 14.2802C24.5466 15.5094 23.6773 17.0516 23.2622 18.7397Z" fill="#186EF9"/>
<path d="M23.2622 23.2598C23.677 24.948 24.5462 26.4904 25.7754 27.7196C27.0047 28.9489 28.5471 29.8181 30.2353 30.2329C29.8202 28.5448 28.9509 27.0026 27.7217 25.7734C26.4925 24.5441 24.9503 23.6749 23.2622 23.2598Z" fill="#0246F2"/>
<path d="M18.7397 18.7397C18.3246 17.0516 17.4553 15.5094 16.2261 14.2802C14.9969 13.051 13.4547 12.1817 11.7666 11.7666C12.1817 13.4547 13.051 14.9969 14.2802 16.2261C15.5094 17.4553 17.0516 18.3246 18.7397 18.7397Z" fill="#0046F8"/>
<path d="M18.7397 23.2598C17.0516 23.6749 15.5094 24.5441 14.2802 25.7734C13.051 27.0026 12.1817 28.5448 11.7666 30.2329C13.4547 29.8178 14.9969 28.9485 16.2261 27.7193C17.4553 26.4901 18.3246 24.9478 18.7397 23.2598Z" fill="#0729F1"/>
</g>
<defs>
<clipPath id="clip0_6_19">
<rect width="42" height="42.001" fill="white"/>
</clipPath>
</defs>
</svg>
