<svg width="48" height="48" viewBox="0 0 48 48" fill="none" xmlns="http://www.w3.org/2000/svg">
<g clip-path="url(#clip0_11_73)">
<path d="M24 48C37.2548 48 48 37.2548 48 24C48 10.7452 37.2548 0 24 0C10.7452 0 0 10.7452 0 24C0 37.2548 10.7452 48 24 48Z" fill="url(#paint0_linear_11_73)"/>
<path fill-rule="evenodd" clip-rule="evenodd" d="M10.8635 23.7469C17.86 20.6986 22.5255 18.689 24.8598 17.7181C31.5249 14.9459 32.9098 14.4643 33.8125 14.4484C34.011 14.4449 34.4549 14.4941 34.7425 14.7274C34.9853 14.9245 35.0521 15.1906 35.0841 15.3774C35.116 15.5642 35.1558 15.9897 35.1242 16.3222C34.763 20.1172 33.2002 29.3265 32.4051 33.5769C32.0687 35.3755 31.4062 35.9785 30.7649 36.0375C29.3712 36.1658 28.3129 35.1164 26.963 34.2316C24.8507 32.8469 23.6573 31.985 21.607 30.6338C19.2374 29.0723 20.7735 28.2141 22.1239 26.8115C22.4773 26.4445 28.6181 20.8589 28.737 20.3523C28.7518 20.2889 28.7656 20.0527 28.6253 19.9279C28.485 19.8032 28.2778 19.8459 28.1284 19.8798C27.9165 19.9279 24.5421 22.1582 18.005 26.5709C17.0472 27.2286 16.1796 27.5491 15.4023 27.5323C14.5454 27.5138 12.897 27.0478 11.6716 26.6495C10.1686 26.1609 8.97407 25.9026 9.07809 25.0729C9.13227 24.6407 9.72742 24.1987 10.8635 23.7469Z" fill="white"/>
</g>
<defs>
<linearGradient id="paint0_linear_11_73" x1="24" y1="0" x2="24" y2="47.644" gradientUnits="userSpaceOnUse">
<stop stop-color="#2AABEE"/>
<stop offset="1" stop-color="#229ED9"/>
</linearGradient>
<clipPath id="clip0_11_73">
<rect width="48" height="48" fill="white"/>
</clipPath>
</defs>
</svg>
