<svg width="14" height="14" viewBox="0 0 14 14" fill="none" xmlns="http://www.w3.org/2000/svg">
<path d="M12.6537 0.66018C12.6291 0.660989 12.6045 0.663162 12.5802 0.66669H8.33341C8.24507 0.665441 8.15737 0.681762 8.07539 0.714704C7.99341 0.747647 7.91879 0.796554 7.85588 0.858583C7.79297 0.920613 7.74301 0.994528 7.70891 1.07603C7.67481 1.15754 7.65725 1.24501 7.65725 1.33336C7.65725 1.42171 7.67481 1.50918 7.70891 1.59068C7.74301 1.67219 7.79297 1.7461 7.85588 1.80813C7.91879 1.87016 7.99341 1.91907 8.07539 1.95201C8.15737 1.98495 8.24507 2.00127 8.33341 2.00002H11.0574L6.52873 6.52867C6.46474 6.5901 6.41366 6.66368 6.37847 6.7451C6.34328 6.82652 6.32469 6.91414 6.32379 7.00283C6.32288 7.09153 6.33969 7.17951 6.37321 7.26163C6.40674 7.34375 6.45631 7.41835 6.51903 7.48107C6.58175 7.54379 6.65636 7.59336 6.73848 7.62689C6.82059 7.66042 6.90858 7.67722 6.99727 7.67632C7.08597 7.67542 7.17359 7.65682 7.25501 7.62163C7.33643 7.58644 7.41001 7.53536 7.47144 7.47138L12.0001 2.94273V5.66669C11.9988 5.75503 12.0152 5.84274 12.0481 5.92472C12.081 6.0067 12.1299 6.08131 12.192 6.14422C12.254 6.20714 12.3279 6.2571 12.4094 6.29119C12.4909 6.32529 12.5784 6.34285 12.6667 6.34285C12.7551 6.34285 12.8426 6.32529 12.9241 6.29119C13.0056 6.2571 13.0795 6.20714 13.1415 6.14422C13.2036 6.08131 13.2525 6.0067 13.2854 5.92472C13.3183 5.84274 13.3347 5.75503 13.3334 5.66669V1.41539C13.3463 1.3196 13.3382 1.22217 13.3096 1.12983C13.2811 1.03749 13.2328 0.95246 13.1682 0.880625C13.1035 0.808789 13.024 0.751868 12.9352 0.713804C12.8464 0.675739 12.7503 0.657442 12.6537 0.66018ZM3.16675 1.66669C1.79431 1.66669 0.666748 2.79425 0.666748 4.16669V10.8334C0.666748 12.2058 1.79431 13.3334 3.16675 13.3334H9.83341C11.2059 13.3334 12.3334 12.2058 12.3334 10.8334V7.66669C12.3347 7.57835 12.3183 7.49064 12.2854 7.40866C12.2525 7.32668 12.2036 7.25207 12.1415 7.18916C12.0795 7.12624 12.0056 7.07629 11.9241 7.04219C11.8426 7.00809 11.7551 6.99053 11.6667 6.99053C11.5784 6.99053 11.4909 7.00809 11.4094 7.04219C11.3279 7.07629 11.254 7.12624 11.192 7.18916C11.1299 7.25207 11.081 7.32668 11.0481 7.40866C11.0152 7.49064 10.9988 7.57835 11.0001 7.66669V10.8334C11.0001 11.4823 10.4823 12 9.83341 12H3.16675C2.51785 12 2.00008 11.4823 2.00008 10.8334V4.16669C2.00008 3.51779 2.51785 3.00002 3.16675 3.00002H6.33341C6.42176 3.00127 6.50946 2.98495 6.59144 2.95201C6.67342 2.91907 6.74804 2.87016 6.81095 2.80813C6.87386 2.7461 6.92382 2.67219 6.95792 2.59068C6.99202 2.50918 7.00958 2.42171 7.00958 2.33336C7.00958 2.24501 6.99202 2.15754 6.95792 2.07603C6.92382 1.99453 6.87386 1.92061 6.81095 1.85858C6.74804 1.79655 6.67342 1.74765 6.59144 1.7147C6.50946 1.68176 6.42176 1.66544 6.33341 1.66669H3.16675Z" fill="black"/>
</svg>
