<svg id="visual" viewBox="0 0 900 600" width="900" height="600" xmlns="http://www.w3.org/2000/svg" xmlns:xlink="http://www.w3.org/1999/xlink" version="1.1"><path d="M0 82L15 75.7C30 69.3 60 56.7 90 58.5C120 60.3 150 76.7 180 82.5C210 88.3 240 83.7 270 89.7C300 95.7 330 112.3 360 112.2C390 112 420 95 450 88.8C480 82.7 510 87.3 540 96C570 104.7 600 117.3 630 123C660 128.7 690 127.3 720 115.2C750 103 780 80 810 74.7C840 69.3 870 81.7 885 87.8L900 94L900 0L885 0C870 0 840 0 810 0C780 0 750 0 720 0C690 0 660 0 630 0C600 0 570 0 540 0C510 0 480 0 450 0C420 0 390 0 360 0C330 0 300 0 270 0C240 0 210 0 180 0C150 0 120 0 90 0C60 0 30 0 15 0L0 0Z" fill="#07752E" stroke-linecap="round" stroke-linejoin="miter"></path></svg>